<?xml version="1.0" encoding="utf-8"?>
<!-- Generator: Adobe Illustrator 16.0.0, SVG Export Plug-In . SVG Version: 6.00 Build 0)  -->
<!DOCTYPE svg PUBLIC "-//W3C//DTD SVG 1.1//EN" "http://www.w3.org/Graphics/SVG/1.1/DTD/svg11.dtd">
<svg version="1.1" id="Calque_1" xmlns="http://www.w3.org/2000/svg" xmlns:xlink="http://www.w3.org/1999/xlink" x="0px" y="0px"
	 width="120px" height="120px" viewBox="0 0 120 120" enable-background="new 0 0 120 120" xml:space="preserve">
<path opacity="0.2" enable-background="new    " d="M78.727,3c11.521,0,17.323,0,23.256,1.863
	c6.119,2.247,10.908,7.036,13.154,13.153C117,23.95,117,29.753,117,41.274v37.453c0,11.521,0,17.323-1.863,23.256
	c-2.246,6.119-7.035,10.908-13.154,13.154C96.05,117,90.247,117,78.727,117H41.274c-11.521,0-17.324,0-23.257-1.863
	c-6.118-2.246-10.907-7.035-13.154-13.154C3,96.05,3,90.247,3,78.727V41.274C3,29.753,3,23.95,4.863,18.017
	C7.11,11.899,11.899,7.11,18.017,4.863C23.95,3,29.753,3,41.274,3H78.727z"/>
<g>
	<circle fill="#11AAFF" cx="24" cy="24" r="3"/>
	<circle fill="#E0002F" cx="24" cy="60" r="3"/>
	<circle fill="#11AAFF" cx="24" cy="96" r="3"/>
	<circle fill="#E0002F" cx="60" cy="24" r="3"/>
	<circle fill="#11AAFF" cx="60" cy="60" r="3"/>
	<circle fill="#11AAFF" cx="60" cy="96" r="3"/>
	<circle fill="#11AAFF" cx="78" cy="24" r="3"/>
	<circle fill="#11AAFF" cx="78" cy="60" r="3"/>
	<circle fill="#11AAFF" cx="78" cy="96" r="3"/>
	<circle fill="#E0002F" cx="42" cy="24" r="3"/>
	<circle fill="#E0002F" cx="42" cy="60" r="3"/>
	<circle fill="#E0002F" cx="42" cy="96" r="3"/>
	<circle fill="#11AAFF" cx="96" cy="24" r="3"/>
	<circle fill="#11AAFF" cx="24" cy="42" r="3"/>
	<circle fill="#11AAFF" cx="60" cy="42" r="3"/>
	<circle fill="#E0002F" cx="78" cy="42" r="3"/>
	<circle fill="#E0002F" cx="42" cy="42" r="3"/>
	<circle fill="#E0002F" cx="96" cy="42" r="3"/>
	<circle fill="#11AAFF" cx="24" cy="78" r="3"/>
	<circle fill="#E0002F" cx="60" cy="78" r="3"/>
	<circle fill="#E0002F" cx="78" cy="78" r="3"/>
	<circle fill="#E0002F" cx="42" cy="78" r="3"/>
	<circle fill="#11AAFF" cx="96" cy="78" r="3"/>
	<circle fill="#E0002F" cx="96" cy="60" r="3"/>
	<circle fill="#E0002F" cx="96" cy="96" r="3"/>
</g>
<path fill="#FFFFFF" d="M78.727,6c11.518,0,16.819,0,22.289,1.704c5.234,1.944,9.336,6.045,11.28,11.281
	C114,24.454,114,29.757,114,41.274v37.453c0,11.518,0,16.819-1.704,22.289c-1.944,5.235-6.045,9.336-11.28,11.28
	C95.546,114,90.243,114,78.727,114H41.274c-11.517,0-16.82,0-22.289-1.704c-5.235-1.944-9.337-6.046-11.281-11.28
	C6,95.546,6,90.243,6,78.727V41.274c0-11.517,0-16.82,1.704-22.289C9.648,13.75,13.75,9.648,18.985,7.704
	C24.454,6,29.757,6,41.274,6H78.727z M78.727,0H41.274C29.389,0,23.447,0,17.05,2.022C10.066,4.564,4.564,10.066,2.022,17.05
	C0,23.447,0,29.389,0,41.274v37.453c0,11.885,0,17.826,2.022,24.224c2.542,6.983,8.044,12.485,15.028,15.028
	C23.447,120,29.389,120,41.274,120h37.453c11.885,0,17.826,0,24.224-2.021c6.983-2.543,12.485-8.045,15.028-15.028
	C120,96.553,120,90.609,120,78.727V41.274c0-11.885,0-17.827-2.021-24.224c-2.543-6.984-8.045-12.486-15.028-15.028
	C96.553,0,90.609,0,78.727,0z"/>
</svg>
