<svg enable-background="new 0 0 120 120" height="120" viewBox="0 0 120 120" width="120" xmlns="http://www.w3.org/2000/svg"><path d="m78.727 3c11.521 0 17.323 0 23.256 1.863 6.118 2.247 10.908 7.036 13.154 13.153 1.863 5.934 1.863 11.737 1.863 23.258v37.453c0 11.521 0 17.323-1.863 23.256-2.246 6.118-7.036 10.908-13.154 13.154-5.933 1.863-11.736 1.863-23.256 1.863h-37.453c-11.521 0-17.324 0-23.257-1.863-6.118-2.246-10.907-7.036-13.154-13.154-1.863-5.933-1.863-11.736-1.863-23.256v-37.453c0-11.521 0-17.324 1.863-23.257 2.247-6.118 7.036-10.907 13.154-13.154 5.933-1.863 11.736-1.863 23.257-1.863z" fill="#fff" opacity=".2"/><circle cx="24" cy="24" fill="#1af" r="3"/><circle cx="24" cy="60" fill="#e0002f" r="3"/><circle cx="24" cy="96" fill="#1af" r="3"/><circle cx="60" cy="24" fill="#e0002f" r="3"/><g fill="#1af"><circle cx="60" cy="60" r="3"/><circle cx="60" cy="96" r="3"/><circle cx="78" cy="24" r="3"/><circle cx="78" cy="60" r="3"/><circle cx="78" cy="96" r="3"/></g><circle cx="42" cy="24" fill="#e0002f" r="3"/><circle cx="42" cy="60" fill="#e0002f" r="3"/><circle cx="42" cy="96" fill="#e0002f" r="3"/><circle cx="96" cy="24" fill="#1af" r="3"/><circle cx="24" cy="42" fill="#1af" r="3"/><circle cx="60" cy="42" fill="#1af" r="3"/><circle cx="78" cy="42" fill="#e0002f" r="3"/><circle cx="42" cy="42" fill="#e0002f" r="3"/><circle cx="96" cy="42" fill="#e0002f" r="3"/><circle cx="24" cy="78" fill="#1af" r="3"/><circle cx="60" cy="78" fill="#e0002f" r="3"/><circle cx="78" cy="78" fill="#e0002f" r="3"/><circle cx="42" cy="78" fill="#e0002f" r="3"/><circle cx="96" cy="78" fill="#1af" r="3"/><circle cx="96" cy="60" fill="#e0002f" r="3"/><circle cx="96" cy="96" fill="#e0002f" r="3"/><path d="m78.727 6c11.517 0 16.819 0 22.288 1.704 5.235 1.944 9.337 6.045 11.281 11.281 1.704 5.469 1.704 10.772 1.704 22.289v37.453c0 11.517 0 16.819-1.704 22.288-1.944 5.236-6.045 9.337-11.281 11.281-5.469 1.704-10.772 1.704-22.288 1.704h-37.453c-11.517 0-16.82 0-22.289-1.704-5.235-1.944-9.337-6.046-11.281-11.281-1.704-5.469-1.704-10.772-1.704-22.288v-37.453c0-11.517 0-16.82 1.704-22.289 1.944-5.235 6.046-9.337 11.281-11.281 5.469-1.704 10.772-1.704 22.289-1.704zm0-6h-37.453c-11.885 0-17.827 0-24.224 2.022-6.984 2.542-12.486 8.044-15.028 15.028-2.022 6.397-2.022 12.339-2.022 24.224v37.453c0 11.884 0 17.826 2.022 24.223 2.542 6.984 8.044 12.486 15.028 15.028 6.397 2.022 12.339 2.022 24.224 2.022h37.453c11.884 0 17.826 0 24.223-2.022 6.984-2.542 12.486-8.044 15.028-15.028 2.022-6.397 2.022-12.34 2.022-24.223v-37.453c0-11.885 0-17.827-2.022-24.224-2.542-6.984-8.044-12.486-15.028-15.028-6.397-2.022-12.34-2.022-24.223-2.022z" fill="#fff"/></svg>